<svg id="visual" viewBox="0 0 900 600" width="900" height="600" xmlns="http://www.w3.org/2000/svg" xmlns:xlink="http://www.w3.org/1999/xlink" version="1.1"><g stroke-width="1" stroke-linejoin="bevel"><path d="M484 290L524 271L491 236Z" fill="#205a7a" stroke="#205a7a"></path><path d="M491 236L449 258L484 290Z" fill="#205a7a" stroke="#205a7a"></path><path d="M524 271L496 190L491 236Z" fill="#246688" stroke="#246688"></path><path d="M491 236L496 190L449 258Z" fill="#0c2435" stroke="#0c2435"></path><path d="M496 190L406 245L449 258Z" fill="#246688" stroke="#246688"></path><path d="M395 366L459 399L484 290Z" fill="#15384f" stroke="#15384f"></path><path d="M484 290L564 339L524 271Z" fill="#19435d" stroke="#19435d"></path><path d="M524 271L621 207L496 190Z" fill="#0c2435" stroke="#0c2435"></path><path d="M562 386L564 339L459 399Z" fill="#1d4e6b" stroke="#1d4e6b"></path><path d="M644 273L621 207L524 271Z" fill="#0c2435" stroke="#0c2435"></path><path d="M564 339L621 322L524 271Z" fill="#00101c" stroke="#00101c"></path><path d="M459 399L564 339L484 290Z" fill="#205a7a" stroke="#205a7a"></path><path d="M564 339L562 386L621 322Z" fill="#297ea6" stroke="#297ea6"></path><path d="M395 366L484 290L449 258Z" fill="#19435d" stroke="#19435d"></path><path d="M406 245L395 366L449 258Z" fill="#0c2435" stroke="#0c2435"></path><path d="M621 322L644 273L524 271Z" fill="#081a28" stroke="#081a28"></path><path d="M636 178L616 167L621 207Z" fill="#297ea6" stroke="#297ea6"></path><path d="M621 207L616 167L496 190Z" fill="#277297" stroke="#277297"></path><path d="M644 273L652 231L621 207Z" fill="#15384f" stroke="#15384f"></path><path d="M329 186L335 261L406 245Z" fill="#277297" stroke="#277297"></path><path d="M406 245L335 261L395 366Z" fill="#297ea6" stroke="#297ea6"></path><path d="M444 98L434 113L496 190Z" fill="#1d4e6b" stroke="#1d4e6b"></path><path d="M496 190L412 119L406 245Z" fill="#15384f" stroke="#15384f"></path><path d="M652 231L636 178L621 207Z" fill="#246688" stroke="#246688"></path><path d="M434 113L412 119L496 190Z" fill="#297ea6" stroke="#297ea6"></path><path d="M561 42L444 98L496 190Z" fill="#246688" stroke="#246688"></path><path d="M434 113L444 98L412 119Z" fill="#19435d" stroke="#19435d"></path><path d="M444 442L506 446L459 399Z" fill="#15384f" stroke="#15384f"></path><path d="M459 399L506 446L562 386Z" fill="#112e42" stroke="#112e42"></path><path d="M412 119L329 186L406 245Z" fill="#205a7a" stroke="#205a7a"></path><path d="M395 366L444 442L459 399Z" fill="#205a7a" stroke="#205a7a"></path><path d="M189 246L312 314L335 261Z" fill="#277297" stroke="#277297"></path><path d="M335 261L312 314L395 366Z" fill="#112e42" stroke="#112e42"></path><path d="M395 366L356 418L444 442Z" fill="#277297" stroke="#277297"></path><path d="M562 386L673 339L621 322Z" fill="#277297" stroke="#277297"></path><path d="M621 322L673 339L644 273Z" fill="#00101c" stroke="#00101c"></path><path d="M644 273L729 253L652 231Z" fill="#297ea6" stroke="#297ea6"></path><path d="M685 462L673 339L562 386Z" fill="#19435d" stroke="#19435d"></path><path d="M636 178L638 112L616 167Z" fill="#00101c" stroke="#00101c"></path><path d="M616 167L561 42L496 190Z" fill="#1d4e6b" stroke="#1d4e6b"></path><path d="M716 164L638 112L636 178Z" fill="#1d4e6b" stroke="#1d4e6b"></path><path d="M716 164L636 178L652 231Z" fill="#081a28" stroke="#081a28"></path><path d="M312 314L356 418L395 366Z" fill="#277297" stroke="#277297"></path><path d="M673 339L709 303L644 273Z" fill="#246688" stroke="#246688"></path><path d="M368 74L313 143L412 119Z" fill="#0c2435" stroke="#0c2435"></path><path d="M412 119L313 143L329 186Z" fill="#081a28" stroke="#081a28"></path><path d="M329 186L189 246L335 261Z" fill="#297ea6" stroke="#297ea6"></path><path d="M510 507L589 468L506 446Z" fill="#0c2435" stroke="#0c2435"></path><path d="M506 446L589 468L562 386Z" fill="#19435d" stroke="#19435d"></path><path d="M673 339L761 377L709 303Z" fill="#205a7a" stroke="#205a7a"></path><path d="M444 98L368 74L412 119Z" fill="#15384f" stroke="#15384f"></path><path d="M414 0L368 74L444 98Z" fill="#297ea6" stroke="#297ea6"></path><path d="M638 112L561 42L616 167Z" fill="#246688" stroke="#246688"></path><path d="M709 303L729 253L644 273Z" fill="#112e42" stroke="#112e42"></path><path d="M729 253L716 164L652 231Z" fill="#081a28" stroke="#081a28"></path><path d="M610 0L537 0L561 42Z" fill="#19435d" stroke="#19435d"></path><path d="M356 418L420 494L444 442Z" fill="#0c2435" stroke="#0c2435"></path><path d="M444 442L510 507L506 446Z" fill="#246688" stroke="#246688"></path><path d="M420 494L510 507L444 442Z" fill="#081a28" stroke="#081a28"></path><path d="M274 403L334 466L356 418Z" fill="#297ea6" stroke="#297ea6"></path><path d="M356 418L355 496L420 494Z" fill="#081a28" stroke="#081a28"></path><path d="M312 314L274 403L356 418Z" fill="#246688" stroke="#246688"></path><path d="M193 320L274 403L312 314Z" fill="#112e42" stroke="#112e42"></path><path d="M561 42L485 0L444 98Z" fill="#19435d" stroke="#19435d"></path><path d="M610 0L561 42L638 112Z" fill="#081a28" stroke="#081a28"></path><path d="M561 42L537 0L485 0Z" fill="#00101c" stroke="#00101c"></path><path d="M279 536L355 496L334 466Z" fill="#246688" stroke="#246688"></path><path d="M334 466L355 496L356 418Z" fill="#205a7a" stroke="#205a7a"></path><path d="M439 600L503 600L510 507Z" fill="#081a28" stroke="#081a28"></path><path d="M618 532L685 462L589 468Z" fill="#1d4e6b" stroke="#1d4e6b"></path><path d="M589 468L685 462L562 386Z" fill="#277297" stroke="#277297"></path><path d="M709 303L792 253L729 253Z" fill="#15384f" stroke="#15384f"></path><path d="M485 0L414 0L444 98Z" fill="#00101c" stroke="#00101c"></path><path d="M368 74L289 58L313 143Z" fill="#246688" stroke="#246688"></path><path d="M685 462L735 417L673 339Z" fill="#00101c" stroke="#00101c"></path><path d="M706 37L610 0L638 112Z" fill="#246688" stroke="#246688"></path><path d="M735 417L761 377L673 339Z" fill="#15384f" stroke="#15384f"></path><path d="M729 253L804 178L716 164Z" fill="#00101c" stroke="#00101c"></path><path d="M280 0L289 58L368 74Z" fill="#19435d" stroke="#19435d"></path><path d="M313 143L218 164L329 186Z" fill="#081a28" stroke="#081a28"></path><path d="M607 600L618 532L510 507Z" fill="#19435d" stroke="#19435d"></path><path d="M510 507L618 532L589 468Z" fill="#277297" stroke="#277297"></path><path d="M685 462L762 488L735 417Z" fill="#112e42" stroke="#112e42"></path><path d="M259 86L218 164L313 143Z" fill="#00101c" stroke="#00101c"></path><path d="M806 262L792 253L709 303Z" fill="#00101c" stroke="#00101c"></path><path d="M716 164L727 74L638 112Z" fill="#246688" stroke="#246688"></path><path d="M289 58L259 86L313 143Z" fill="#277297" stroke="#277297"></path><path d="M822 103L727 74L716 164Z" fill="#1d4e6b" stroke="#1d4e6b"></path><path d="M218 164L189 246L329 186Z" fill="#19435d" stroke="#19435d"></path><path d="M189 246L193 320L312 314Z" fill="#205a7a" stroke="#205a7a"></path><path d="M274 403L279 536L334 466Z" fill="#15384f" stroke="#15384f"></path><path d="M193 320L223 408L274 403Z" fill="#246688" stroke="#246688"></path><path d="M727 74L706 37L638 112Z" fill="#1d4e6b" stroke="#1d4e6b"></path><path d="M761 377L806 262L709 303Z" fill="#0c2435" stroke="#0c2435"></path><path d="M792 253L804 178L729 253Z" fill="#00101c" stroke="#00101c"></path><path d="M607 600L653 537L618 532Z" fill="#1d4e6b" stroke="#1d4e6b"></path><path d="M618 532L653 537L685 462Z" fill="#112e42" stroke="#112e42"></path><path d="M806 262L804 178L792 253Z" fill="#15384f" stroke="#15384f"></path><path d="M751 0L698 0L706 37Z" fill="#081a28" stroke="#081a28"></path><path d="M218 164L177 239L189 246Z" fill="#15384f" stroke="#15384f"></path><path d="M189 246L118 274L193 320Z" fill="#00101c" stroke="#00101c"></path><path d="M143 176L177 239L218 164Z" fill="#1d4e6b" stroke="#1d4e6b"></path><path d="M706 37L698 0L610 0Z" fill="#246688" stroke="#246688"></path><path d="M751 0L706 37L727 74Z" fill="#15384f" stroke="#15384f"></path><path d="M735 417L806 390L761 377Z" fill="#0c2435" stroke="#0c2435"></path><path d="M761 377L806 390L806 262Z" fill="#112e42" stroke="#112e42"></path><path d="M786 465L806 390L735 417Z" fill="#19435d" stroke="#19435d"></path><path d="M439 600L420 494L402 600Z" fill="#00101c" stroke="#00101c"></path><path d="M439 600L510 507L420 494Z" fill="#205a7a" stroke="#205a7a"></path><path d="M402 600L420 494L355 496Z" fill="#246688" stroke="#246688"></path><path d="M289 58L280 0L259 86Z" fill="#297ea6" stroke="#297ea6"></path><path d="M160 72L143 176L218 164Z" fill="#205a7a" stroke="#205a7a"></path><path d="M414 0L280 0L368 74Z" fill="#00101c" stroke="#00101c"></path><path d="M135 359L192 424L223 408Z" fill="#19435d" stroke="#19435d"></path><path d="M223 408L279 536L274 403Z" fill="#081a28" stroke="#081a28"></path><path d="M135 359L223 408L193 320Z" fill="#297ea6" stroke="#297ea6"></path><path d="M653 537L762 488L685 462Z" fill="#00101c" stroke="#00101c"></path><path d="M192 424L279 536L223 408Z" fill="#15384f" stroke="#15384f"></path><path d="M319 600L402 600L355 496Z" fill="#246688" stroke="#246688"></path><path d="M762 488L786 465L735 417Z" fill="#246688" stroke="#246688"></path><path d="M503 600L607 600L510 507Z" fill="#0c2435" stroke="#0c2435"></path><path d="M653 537L693 600L762 488Z" fill="#277297" stroke="#277297"></path><path d="M900 111L822 103L804 178Z" fill="#00101c" stroke="#00101c"></path><path d="M804 178L822 103L716 164Z" fill="#1d4e6b" stroke="#1d4e6b"></path><path d="M900 191L804 178L806 262Z" fill="#19435d" stroke="#19435d"></path><path d="M160 72L218 164L259 86Z" fill="#0c2435" stroke="#0c2435"></path><path d="M118 274L135 359L193 320Z" fill="#1d4e6b" stroke="#1d4e6b"></path><path d="M822 103L751 0L727 74Z" fill="#246688" stroke="#246688"></path><path d="M118 274L189 246L177 239Z" fill="#15384f" stroke="#15384f"></path><path d="M227 600L319 600L279 536Z" fill="#246688" stroke="#246688"></path><path d="M143 176L118 274L177 239Z" fill="#00101c" stroke="#00101c"></path><path d="M202 545L279 536L192 424Z" fill="#081a28" stroke="#081a28"></path><path d="M279 536L319 600L355 496Z" fill="#15384f" stroke="#15384f"></path><path d="M194 0L160 72L259 86Z" fill="#246688" stroke="#246688"></path><path d="M52 247L61 261L118 274Z" fill="#205a7a" stroke="#205a7a"></path><path d="M607 600L693 600L653 537Z" fill="#246688" stroke="#246688"></path><path d="M762 488L841 560L786 465Z" fill="#19435d" stroke="#19435d"></path><path d="M99 436L139 443L135 359Z" fill="#205a7a" stroke="#205a7a"></path><path d="M135 359L139 443L192 424Z" fill="#112e42" stroke="#112e42"></path><path d="M280 0L194 0L259 86Z" fill="#277297" stroke="#277297"></path><path d="M900 372L900 298L806 390Z" fill="#0c2435" stroke="#0c2435"></path><path d="M806 390L900 298L806 262Z" fill="#00101c" stroke="#00101c"></path><path d="M139 443L202 545L192 424Z" fill="#0c2435" stroke="#0c2435"></path><path d="M194 0L184 0L160 72Z" fill="#15384f" stroke="#15384f"></path><path d="M900 298L900 191L806 262Z" fill="#297ea6" stroke="#297ea6"></path><path d="M822 103L842 0L751 0Z" fill="#1d4e6b" stroke="#1d4e6b"></path><path d="M900 427L806 390L786 465Z" fill="#246688" stroke="#246688"></path><path d="M900 427L900 372L806 390Z" fill="#277297" stroke="#277297"></path><path d="M85 41L92 155L160 72Z" fill="#112e42" stroke="#112e42"></path><path d="M160 72L92 155L143 176Z" fill="#0c2435" stroke="#0c2435"></path><path d="M36 404L99 436L135 359Z" fill="#297ea6" stroke="#297ea6"></path><path d="M693 600L765 600L762 488Z" fill="#277297" stroke="#277297"></path><path d="M112 600L227 600L202 545Z" fill="#205a7a" stroke="#205a7a"></path><path d="M202 545L227 600L279 536Z" fill="#1d4e6b" stroke="#1d4e6b"></path><path d="M900 191L900 111L804 178Z" fill="#0c2435" stroke="#0c2435"></path><path d="M900 111L900 110L822 103Z" fill="#1d4e6b" stroke="#1d4e6b"></path><path d="M61 261L135 359L118 274Z" fill="#19435d" stroke="#19435d"></path><path d="M139 443L111 552L202 545Z" fill="#081a28" stroke="#081a28"></path><path d="M900 110L842 0L822 103Z" fill="#19435d" stroke="#19435d"></path><path d="M52 247L118 274L143 176Z" fill="#0c2435" stroke="#0c2435"></path><path d="M841 560L900 427L786 465Z" fill="#1d4e6b" stroke="#1d4e6b"></path><path d="M92 155L52 247L143 176Z" fill="#0c2435" stroke="#0c2435"></path><path d="M0 309L36 404L135 359Z" fill="#1d4e6b" stroke="#1d4e6b"></path><path d="M765 600L841 560L762 488Z" fill="#0c2435" stroke="#0c2435"></path><path d="M765 600L808 600L841 560Z" fill="#246688" stroke="#246688"></path><path d="M184 0L85 41L160 72Z" fill="#277297" stroke="#277297"></path><path d="M92 155L0 209L52 247Z" fill="#297ea6" stroke="#297ea6"></path><path d="M99 436L111 552L139 443Z" fill="#081a28" stroke="#081a28"></path><path d="M35 521L111 552L99 436Z" fill="#246688" stroke="#246688"></path><path d="M0 309L135 359L61 261Z" fill="#205a7a" stroke="#205a7a"></path><path d="M900 110L900 0L842 0Z" fill="#277297" stroke="#277297"></path><path d="M52 247L0 309L61 261Z" fill="#277297" stroke="#277297"></path><path d="M0 209L0 309L52 247Z" fill="#112e42" stroke="#112e42"></path><path d="M0 145L0 209L92 155Z" fill="#081a28" stroke="#081a28"></path><path d="M900 600L900 563L841 560Z" fill="#15384f" stroke="#15384f"></path><path d="M841 560L900 563L900 427Z" fill="#297ea6" stroke="#297ea6"></path><path d="M0 101L0 145L92 155Z" fill="#19435d" stroke="#19435d"></path><path d="M93 600L112 600L111 552Z" fill="#205a7a" stroke="#205a7a"></path><path d="M111 552L112 600L202 545Z" fill="#297ea6" stroke="#297ea6"></path><path d="M0 309L0 384L36 404Z" fill="#15384f" stroke="#15384f"></path><path d="M35 521L93 600L111 552Z" fill="#277297" stroke="#277297"></path><path d="M85 41L0 101L92 155Z" fill="#081a28" stroke="#081a28"></path><path d="M0 444L99 436L36 404Z" fill="#297ea6" stroke="#297ea6"></path><path d="M808 600L900 600L841 560Z" fill="#246688" stroke="#246688"></path><path d="M0 384L0 444L36 404Z" fill="#112e42" stroke="#112e42"></path><path d="M0 444L35 521L99 436Z" fill="#246688" stroke="#246688"></path><path d="M184 0L36 0L85 41Z" fill="#112e42" stroke="#112e42"></path><path d="M85 41L36 0L0 101Z" fill="#00101c" stroke="#00101c"></path><path d="M36 0L0 0L0 101Z" fill="#112e42" stroke="#112e42"></path><path d="M0 444L0 533L35 521Z" fill="#1d4e6b" stroke="#1d4e6b"></path><path d="M35 521L0 600L93 600Z" fill="#19435d" stroke="#19435d"></path><path d="M0 533L0 600L35 521Z" fill="#00101c" stroke="#00101c"></path></g></svg>