<svg id="visual" viewBox="0 0 900 600" width="900" height="600" xmlns="http://www.w3.org/2000/svg" xmlns:xlink="http://www.w3.org/1999/xlink" version="1.1"><path d="M0 67L30 61C60 55 120 43 180 33C240 23 300 15 360 21C420 27 480 47 540 57C600 67 660 67 720 58C780 49 840 31 870 22L900 13L900 0L870 0C840 0 780 0 720 0C660 0 600 0 540 0C480 0 420 0 360 0C300 0 240 0 180 0C120 0 60 0 30 0L0 0Z" fill="#0066ff"></path><path d="M0 91L30 93C60 95 120 99 180 100C240 101 300 99 360 107C420 115 480 133 540 134C600 135 660 119 720 99C780 79 840 55 870 43L900 31L900 11L870 20C840 29 780 47 720 56C660 65 600 65 540 55C480 45 420 25 360 19C300 13 240 21 180 31C120 41 60 53 30 59L0 65Z" fill="#2559e5"></path><path d="M0 121L30 133C60 145 120 169 180 181C240 193 300 193 360 191C420 189 480 185 540 171C600 157 660 133 720 116C780 99 840 89 870 84L900 79L900 29L870 41C840 53 780 77 720 97C660 117 600 133 540 132C480 131 420 113 360 105C300 97 240 99 180 98C120 97 60 93 30 91L0 89Z" fill="#2f4dcb"></path><path d="M0 181L30 187C60 193 120 205 180 222C240 239 300 261 360 271C420 281 480 279 540 255C600 231 660 185 720 166C780 147 840 155 870 159L900 163L900 77L870 82C840 87 780 97 720 114C660 131 600 155 540 169C480 183 420 187 360 189C300 191 240 191 180 179C120 167 60 143 30 131L0 119Z" fill="#3342b2"></path><path d="M0 241L30 256C60 271 120 301 180 341C240 381 300 431 360 458C420 485 480 489 540 462C600 435 660 377 720 337C780 297 840 275 870 264L900 253L900 161L870 157C840 153 780 145 720 164C660 183 600 229 540 253C480 277 420 279 360 269C300 259 240 237 180 220C120 203 60 191 30 185L0 179Z" fill="#32379a"></path><path d="M0 277L30 288C60 299 120 321 180 356C240 391 300 439 360 472C420 505 480 523 540 503C600 483 660 425 720 385C780 345 840 323 870 312L900 301L900 251L870 262C840 273 780 295 720 335C660 375 600 433 540 460C480 487 420 483 360 456C300 429 240 379 180 339C120 299 60 269 30 254L0 239Z" fill="#2f2c83"></path><path d="M0 403L30 411C60 419 120 435 180 463C240 491 300 531 360 551C420 571 480 571 540 567C600 563 660 555 720 534C780 513 840 479 870 462L900 445L900 299L870 310C840 321 780 343 720 383C660 423 600 481 540 501C480 521 420 503 360 470C300 437 240 389 180 354C120 319 60 297 30 286L0 275Z" fill="#2a226c"></path><path d="M0 601L30 601C60 601 120 601 180 601C240 601 300 601 360 601C420 601 480 601 540 601C600 601 660 601 720 601C780 601 840 601 870 601L900 601L900 443L870 460C840 477 780 511 720 532C660 553 600 561 540 565C480 569 420 569 360 549C300 529 240 489 180 461C120 433 60 417 30 409L0 401Z" fill="#241957"></path></svg>